<svg xmlns="http://www.w3.org/2000/svg" aria-hidden="true" style="position:absolute;width:0;height:0;overflow:hidden">
  <defs>
    <symbol id="icon-menu" viewBox="0 0 32 32">
      <path d="M5.333 8h21.333v2.667H5.333V8zm0 6.667h21.333v2.667H5.333v-2.667zm0 6.666h21.333V24H5.333v-2.667z"/>
    </symbol>
    <symbol id="icon-x" viewBox="0 0 32 32">
      <path d="m21.589 8.459-5.657 5.656-5.656-5.656-1.885 1.885L14.047 16l-5.656 5.656 1.885 1.885 5.656-5.656 5.657 5.656 1.885-1.885L17.818 16l5.656-5.656-1.885-1.885z"/>
    </symbol>
    <symbol id="icon-Youtube" viewBox="0 0 31 32">
      <path d="M27.639 9.86a3.199 3.199 0 0 0-2.255-2.261C23.38 7.049 15.36 7.04 15.36 7.04s-8.018-.009-10.024.517a3.272 3.272 0 0 0-2.261 2.275c-.529 2.004-.534 6.162-.534 6.162s-.005 4.178.52 6.162a3.204 3.204 0 0 0 2.257 2.259c2.025.55 10.022.559 10.022.559s8.019.009 10.024-.516a3.221 3.221 0 0 0 2.262-2.257c.53-2.003.534-6.159.534-6.159s.026-4.179-.521-6.184zm-14.844 9.986.006-7.68 6.665 3.846-6.671 3.834z"/>
    </symbol>
    <symbol id="icon-LinkedIn" viewBox="0 0 33 32">
      <path d="M6.667 4.324a2 2 0 0 0-2 2v20a2 2 0 0 0 2 2h20a2 2 0 0 0 2-2v-20a2 2 0 0 0-2-2h-20zm5.361 5.337c.008 1.275-.947 2.061-2.079 2.055-1.067-.006-1.997-.855-1.991-2.053.006-1.127.896-2.033 2.053-2.006 1.174.026 2.025.887 2.018 2.004zm5.012 3.678h-3.362v11.413h3.551v-.266l-.001-1.52c-.001-1.352-.002-2.705.005-4.056.002-.328.017-.669.101-.983.317-1.17 1.369-1.926 2.543-1.74.754.118 1.252.555 1.462 1.266.129.444.188.922.193 1.386.015 1.397.013 2.794.011 4.191l-.002 1.479v.242h3.563v-.274l-.001-1.808c-.001-1.506-.001-3.012.003-4.519a8.04 8.04 0 0 0-.238-2.01c-.249-.979-.765-1.789-1.603-2.374-.594-.416-1.247-.684-1.976-.714-.083-.003-.167-.008-.251-.013-.373-.02-.752-.041-1.109.031-1.02.204-1.916.671-2.593 1.494-.079.094-.156.19-.27.333l-.026.032v-1.592zM8.242 24.756h3.534V13.347H8.242v11.409z"/>
    </symbol>
    <symbol id="icon-Instagram" viewBox="0 0 33 32">
      <path d="M22 4.324H11.333a6.667 6.667 0 0 0-6.667 6.667v10.667a6.667 6.667 0 0 0 6.667 6.667H22a6.667 6.667 0 0 0 6.667-6.667V10.991A6.667 6.667 0 0 0 22 4.324zm4.333 17.333A4.346 4.346 0 0 1 22 25.99H11.333A4.346 4.346 0 0 1 7 21.657V10.99a4.346 4.346 0 0 1 4.333-4.333H22a4.346 4.346 0 0 1 4.333 4.333v10.667zM23 11.324a1.333 1.333 0 1 0 0-2.667 1.333 1.333 0 0 0 0 2.667zm-6.333-1a6 6 0 1 0 6 6 5.986 5.986 0 0 0-6-6zm-3.667 6a3.667 3.667 0 1 0 7.335 0 3.667 3.667 0 0 0-7.335 0z"/>
    </symbol>
    <symbol id="icon-Facebook" viewBox="0 0 33 32">
      <path d="M30 16.405C30 8.996 24.031 2.99 16.667 2.99S3.334 8.996 3.334 16.405c0 6.696 4.876 12.245 11.25 13.252v-9.374h-3.385v-3.878h3.385V13.45c0-3.362 1.991-5.219 5.036-5.219 1.459 0 2.985.262 2.985.262v3.301h-1.681c-1.656 0-2.173 1.034-2.173 2.095v2.516h3.698l-.591 3.878h-3.107v9.374c6.374-1.006 11.25-6.556 11.25-13.252z"/>
    </symbol>
    
  </defs>
</svg>